<svg width="41" height="357" viewBox="0 0 41 357" fill="none" xmlns="http://www.w3.org/2000/svg">
<line x1="5" y1="-5" x2="34.5123" y2="-5" transform="matrix(-1 -8.74228e-08 -0.152941 -0.988235 39.5123 15.4705)" stroke="#453F3C" stroke-width="10" stroke-linecap="round"/>
<line x1="5" y1="-5" x2="34.5123" y2="-5" transform="matrix(-4.37114e-08 1 -0.988235 -0.152941 16.7562 0)" stroke="#453F3C" stroke-width="10" stroke-linecap="round"/>
<line x1="5" y1="-5" x2="34.5123" y2="-5" transform="matrix(-1 -8.74228e-08 -0.152941 -0.988235 39.5123 15.4705)" stroke="#453F3C" stroke-width="10" stroke-linecap="round"/>
<line x1="5" y1="-5" x2="34.5123" y2="-5" transform="matrix(-4.37114e-08 1 -0.988235 -0.152941 16.7562 0)" stroke="#453F3C" stroke-width="10" stroke-linecap="round"/>
<line x1="5" y1="-5" x2="34.5123" y2="-5" transform="matrix(-1 -8.74228e-08 -0.152941 -0.988235 39.5123 59.9827)" stroke="#453F3C" stroke-width="10" stroke-linecap="round"/>
<line x1="5" y1="-5" x2="34.5123" y2="-5" transform="matrix(-4.37114e-08 1 -0.988235 -0.152941 16.7562 44.5122)" stroke="#453F3C" stroke-width="10" stroke-linecap="round"/>
<line x1="5" y1="-5" x2="34.5123" y2="-5" transform="matrix(-1 -8.74228e-08 -0.152941 -0.988235 39.5123 104.495)" stroke="#453F3C" stroke-width="10" stroke-linecap="round"/>
<line x1="5" y1="-5" x2="34.5123" y2="-5" transform="matrix(-4.37114e-08 1 -0.988235 -0.152941 16.7562 89.0247)" stroke="#453F3C" stroke-width="10" stroke-linecap="round"/>
<line x1="5" y1="-5" x2="34.5123" y2="-5" transform="matrix(-1 -8.74228e-08 -0.152941 -0.988235 39.5123 149.008)" stroke="#453F3C" stroke-width="10" stroke-linecap="round"/>
<line x1="5" y1="-5" x2="34.5123" y2="-5" transform="matrix(-4.37114e-08 1 -0.988235 -0.152941 16.7562 133.537)" stroke="#453F3C" stroke-width="10" stroke-linecap="round"/>
<line x1="5" y1="-5" x2="34.5123" y2="-5" transform="matrix(-1 -8.74228e-08 -0.152941 -0.988235 39.5123 198.47)" stroke="#453F3C" stroke-width="10" stroke-linecap="round"/>
<line x1="5" y1="-5" x2="34.5123" y2="-5" transform="matrix(-4.37114e-08 1 -0.988235 -0.152941 16.7562 183)" stroke="#453F3C" stroke-width="10" stroke-linecap="round"/>
<line x1="5" y1="-5" x2="34.5123" y2="-5" transform="matrix(-1 -8.74228e-08 -0.152941 -0.988235 39.5123 198.47)" stroke="#453F3C" stroke-width="10" stroke-linecap="round"/>
<line x1="5" y1="-5" x2="34.5123" y2="-5" transform="matrix(-4.37114e-08 1 -0.988235 -0.152941 16.7562 183)" stroke="#453F3C" stroke-width="10" stroke-linecap="round"/>
<line x1="5" y1="-5" x2="34.5123" y2="-5" transform="matrix(-1 -8.74228e-08 -0.152941 -0.988235 39.5123 242.983)" stroke="#453F3C" stroke-width="10" stroke-linecap="round"/>
<line x1="5" y1="-5" x2="34.5123" y2="-5" transform="matrix(-4.37114e-08 1 -0.988235 -0.152941 16.7562 227.512)" stroke="#453F3C" stroke-width="10" stroke-linecap="round"/>
<line x1="5" y1="-5" x2="34.5123" y2="-5" transform="matrix(-1 -8.74228e-08 -0.152941 -0.988235 39.5123 287.495)" stroke="#453F3C" stroke-width="10" stroke-linecap="round"/>
<line x1="5" y1="-5" x2="34.5123" y2="-5" transform="matrix(-4.37114e-08 1 -0.988235 -0.152941 16.7562 272.025)" stroke="#453F3C" stroke-width="10" stroke-linecap="round"/>
<line x1="5" y1="-5" x2="34.5123" y2="-5" transform="matrix(-1 -8.74228e-08 -0.152941 -0.988235 39.5123 332.008)" stroke="#453F3C" stroke-width="10" stroke-linecap="round"/>
<line x1="5" y1="-5" x2="34.5123" y2="-5" transform="matrix(-4.37114e-08 1 -0.988235 -0.152941 16.7562 316.537)" stroke="#453F3C" stroke-width="10" stroke-linecap="round"/>
</svg>
