<?xml version="1.0" standalone="no"?>
<svg viewBox="0 0 200 200" xmlns="http://www.w3.org/2000/svg">
  <path fill="#118858" d="M43.3,-69.2C54.4,-60.3,60.5,-45.3,63.9,-31.1C67.2,-17,68,-3.5,64.7,8.3C61.4,20.1,54.1,30.3,46.1,40.5C38.1,50.6,29.4,60.6,18.5,64.3C7.7,68.1,-5.4,65.5,-18,61.6C-30.6,57.8,-42.7,52.7,-54.2,44.3C-65.7,35.9,-76.5,24.2,-75.8,12.4C-75.1,0.7,-62.9,-11.3,-54.9,-23.5C-46.9,-35.7,-43,-48.3,-34.5,-58.4C-26.1,-68.4,-13,-75.9,1.5,-78.3C16.1,-80.7,32.3,-78,43.3,-69.2Z" transform="translate(100 100)" />
</svg>
