<svg width="135" height="108" viewBox="0 0 135 108" fill="none" xmlns="http://www.w3.org/2000/svg">
<rect y="87" width="20" height="20" fill="#453F3C"/>
<path d="M28.708 87H48.708V107H28.708V87Z" fill="#453F3C"/>
<path d="M57 87.115H77V107.115H57V87.115Z" fill="#453F3C"/>
<path d="M86 87.115H106V107.115H86V87.115Z" fill="#453F3C"/>
<path d="M114.292 87.23H134.292V107.23H114.292V87.23Z" fill="#453F3C"/>
<rect y="58" width="20" height="20" fill="#453F3C"/>
<path d="M28.708 58H48.708V78H28.708V58Z" fill="#453F3C"/>
<path d="M57 58.115H77V78.115H57V58.115Z" fill="#453F3C"/>
<path d="M86 58.115H106V78.115H86V58.115Z" fill="#453F3C"/>
<path d="M114.292 58.23H134.292V78.23H114.292V58.23Z" fill="#453F3C"/>
<rect y="29" width="20" height="20" fill="#453F3C"/>
<path d="M28.708 29H48.708V49H28.708V29Z" fill="#453F3C"/>
<path d="M57 29.115H77V49.115H57V29.115Z" fill="#453F3C"/>
<path d="M86 29.115H106V49.115H86V29.115Z" fill="#453F3C"/>
<path d="M114.292 29.23H134.292V49.23H114.292V29.23Z" fill="#453F3C"/>
<rect width="20" height="20" fill="#453F3C"/>
<path d="M28.708 0H48.708V20H28.708V0Z" fill="#453F3C"/>
<path d="M57 0.11499H77V20.115H57V0.11499Z" fill="#453F3C"/>
<path d="M86 0.11499H106V20.115H86V0.11499Z" fill="#453F3C"/>
<path d="M114.292 0.22998H134.292V20.23H114.292V0.22998Z" fill="#453F3C"/>
</svg>
