<svg width="290" height="36" viewBox="0 0 290 36" fill="none" xmlns="http://www.w3.org/2000/svg">
<line x1="5" y1="-5" x2="34.5123" y2="-5" transform="matrix(0.650791 0.759257 -0.650791 0.759257 0 6)" stroke="#E83151" stroke-width="10" stroke-linecap="round"/>
<line x1="5" y1="-5" x2="34.5123" y2="-5" transform="matrix(0.650791 -0.759257 0.650791 0.759257 5.28571 36)" stroke="#E83151" stroke-width="10" stroke-linecap="round"/>
<line x1="5" y1="-5" x2="34.5123" y2="-5" transform="matrix(0.650791 0.759257 -0.650791 0.759257 39 6)" stroke="#E83151" stroke-width="10" stroke-linecap="round"/>
<line x1="5" y1="-5" x2="34.5123" y2="-5" transform="matrix(0.650791 -0.759257 0.650791 0.759257 44.2857 36)" stroke="#E83151" stroke-width="10" stroke-linecap="round"/>
<line x1="5" y1="-5" x2="34.5123" y2="-5" transform="matrix(0.650791 0.759257 -0.650791 0.759257 78 6)" stroke="#E83151" stroke-width="10" stroke-linecap="round"/>
<line x1="5" y1="-5" x2="34.5123" y2="-5" transform="matrix(0.650791 -0.759257 0.650791 0.759257 83.2857 36)" stroke="#E83151" stroke-width="10" stroke-linecap="round"/>
<line x1="5" y1="-5" x2="34.5123" y2="-5" transform="matrix(0.650791 0.759257 -0.650791 0.759257 117 6)" stroke="#E83151" stroke-width="10" stroke-linecap="round"/>
<line x1="5" y1="-5" x2="34.5123" y2="-5" transform="matrix(0.650791 -0.759257 0.650791 0.759257 122.286 36)" stroke="#E83151" stroke-width="10" stroke-linecap="round"/>
<line x1="5" y1="-5" x2="34.5123" y2="-5" transform="matrix(0.650791 0.759257 -0.650791 0.759257 156 6)" stroke="#E83151" stroke-width="10" stroke-linecap="round"/>
<line x1="5" y1="-5" x2="34.5123" y2="-5" transform="matrix(0.650791 -0.759257 0.650791 0.759257 161.286 36)" stroke="#E83151" stroke-width="10" stroke-linecap="round"/>
<line x1="5" y1="-5" x2="34.5123" y2="-5" transform="matrix(0.650791 0.759257 -0.650791 0.759257 195 6)" stroke="#E83151" stroke-width="10" stroke-linecap="round"/>
<line x1="5" y1="-5" x2="34.5123" y2="-5" transform="matrix(0.650791 -0.759257 0.650791 0.759257 200.286 36)" stroke="#E83151" stroke-width="10" stroke-linecap="round"/>
<line x1="5" y1="-5" x2="34.5123" y2="-5" transform="matrix(0.650791 0.759257 -0.650791 0.759257 234 6)" stroke="#E83151" stroke-width="10" stroke-linecap="round"/>
<line x1="5" y1="-5" x2="34.5123" y2="-5" transform="matrix(0.650791 -0.759257 0.650791 0.759257 239.286 36)" stroke="#E83151" stroke-width="10" stroke-linecap="round"/>
<line x1="5" y1="-5" x2="34.5123" y2="-5" transform="matrix(0.650791 0.759257 -0.650791 0.759257 273 6)" stroke="#E83151" stroke-width="10" stroke-linecap="round"/>
<line x1="5" y1="-5" x2="34.5123" y2="-5" transform="matrix(0.650791 -0.759257 0.650791 0.759257 278.286 36)" stroke="#E83151" stroke-width="10" stroke-linecap="round"/>
</svg>
