<svg width="146" height="146" viewBox="0 0 146 146" fill="none" xmlns="http://www.w3.org/2000/svg">
<circle cx="9" cy="9" r="9" fill="#EF4966"/>
<circle cx="41" cy="9" r="9" fill="#EF4966"/>
<circle cx="73" cy="9" r="9" fill="#EF4966"/>
<circle cx="105" cy="9" r="9" fill="#EF4966"/>
<circle cx="137" cy="9" r="9" fill="#EF4966"/>
<circle cx="9" cy="41" r="9" fill="#EF4966"/>
<circle cx="41" cy="41" r="9" fill="#EF4966"/>
<circle cx="73" cy="41" r="9" fill="#EF4966"/>
<circle cx="105" cy="41" r="9" fill="#EF4966"/>
<circle cx="137" cy="41" r="9" fill="#EF4966"/>
<circle cx="9" cy="73" r="9" fill="#EF4966"/>
<circle cx="41" cy="73" r="9" fill="#EF4966"/>
<circle cx="73" cy="73" r="9" fill="#EF4966"/>
<circle cx="105" cy="73" r="9" fill="#EF4966"/>
<circle cx="137" cy="73" r="9" fill="#EF4966"/>
<circle cx="9" cy="105" r="9" fill="#EF4966"/>
<circle cx="41" cy="105" r="9" fill="#EF4966"/>
<circle cx="73" cy="105" r="9" fill="#EF4966"/>
<circle cx="105" cy="105" r="9" fill="#EF4966"/>
<circle cx="137" cy="105" r="9" fill="#EF4966"/>
<circle cx="9" cy="137" r="9" fill="#EF4966"/>
<circle cx="41" cy="137" r="9" fill="#EF4966"/>
<circle cx="73" cy="137" r="9" fill="#EF4966"/>
<circle cx="105" cy="137" r="9" fill="#EF4966"/>
<circle cx="137" cy="137" r="9" fill="#EF4966"/>
</svg>
