<svg width="520" height="543" viewBox="0 0 520 543" fill="none" xmlns="http://www.w3.org/2000/svg" xmlns:xlink="http://www.w3.org/1999/xlink">
<path fill-rule="evenodd" clip-rule="evenodd" d="M252.239 1.17626C321.887 3.55169 384.639 38.0502 433.797 87.143C482.819 136.1 518.634 198.514 518.997 267.582C519.362 336.971 484.329 400.122 435.705 449.917C386.238 500.575 323.211 537.938 252.239 540.763C178.543 543.697 102.996 519.445 53.4627 465.134C5.74102 412.81 2.30832 338.198 3.08809 267.582C3.85623 198.018 10.1223 125.275 57.7782 74.3184C106.83 21.8698 180.232 -1.27963 252.239 1.17626Z" stroke="black"/>
<path fill-rule="evenodd" clip-rule="evenodd" d="M243.926 11.1736C312.089 13.5139 373.503 47.5013 421.613 95.8668C469.59 144.099 504.642 205.588 504.997 273.633C505.354 341.993 471.069 404.209 423.48 453.267C375.068 503.174 313.385 539.983 243.926 542.767C171.801 545.657 97.8644 521.764 49.387 468.258C2.68258 416.709 -0.676934 343.202 0.0862077 273.633C0.83798 205.099 6.9705 133.434 53.6105 83.2322C101.616 31.5606 173.454 8.75414 243.926 11.1736Z" fill="#C4C4C4"/>
<path fill-rule="evenodd" clip-rule="evenodd" d="M243.926 11.1736C312.089 13.5139 373.503 47.5013 421.613 95.8668C469.59 144.099 504.642 205.588 504.997 273.633C505.354 341.993 471.069 404.209 423.48 453.267C375.068 503.174 313.385 539.983 243.926 542.767C171.801 545.657 97.8644 521.764 49.387 468.258C2.68258 416.709 -0.676934 343.202 0.0862077 273.633C0.83798 205.099 6.9705 133.434 53.6105 83.2322C101.616 31.5606 173.454 8.75414 243.926 11.1736Z" fill="url(#pattern0)"/>
<defs>
<pattern id="pattern0" patternContentUnits="objectBoundingBox" width="1" height="1">
<use xlink:href="#image0_118_83" transform="translate(-0.193618) scale(0.00130379)"/>
</pattern>
<image id="image0_118_83" width="1064" height="808" xlink:href="img/img3.jpg"/>
</defs>
</svg>
