<svg width="160" height="151" viewBox="0 0 160 151" fill="none" xmlns="http://www.w3.org/2000/svg">
<path d="M140 111L157.321 141H122.679L140 111Z" fill="#E83151"/>
<path d="M120 74L137.321 104H102.679L120 74Z" fill="#E83151"/>
<path d="M80 74L97.3205 104H62.6795L80 74Z" fill="#E83151"/>
<path d="M100 37L117.321 67H82.6795L100 37Z" fill="#E83151"/>
<path d="M100 111L117.321 141H82.6795L100 111Z" fill="#E83151"/>
<path d="M60 111L77.3205 141H42.6795L60 111Z" fill="#E83151"/>
<path d="M20 111L37.3205 141H2.67949L20 111Z" fill="#E83151"/>
<path d="M40 74L57.3205 104H22.6795L40 74Z" fill="#E83151"/>
<path d="M60 37L77.3205 67H42.6795L60 37Z" fill="#E83151"/>
<path d="M80 0L97.3205 30H62.6795L80 0Z" fill="#E83151"/>
</svg>
