<svg width="82" height="146" viewBox="0 0 82 146" fill="none" xmlns="http://www.w3.org/2000/svg">
<circle cx="73" cy="9" r="9" transform="rotate(90 73 9)" fill="#021F89"/>
<circle cx="73" cy="41" r="9" transform="rotate(90 73 41)" fill="#021F89"/>
<circle cx="73" cy="73" r="9" transform="rotate(90 73 73)" fill="#021F89"/>
<circle cx="73" cy="105" r="9" transform="rotate(90 73 105)" fill="#021F89"/>
<circle cx="73" cy="137" r="9" transform="rotate(90 73 137)" fill="#021F89"/>
<circle cx="41" cy="9" r="9" transform="rotate(90 41 9)" fill="#021F89"/>
<circle cx="41" cy="41" r="9" transform="rotate(90 41 41)" fill="#021F89"/>
<circle cx="41" cy="73" r="9" transform="rotate(90 41 73)" fill="#021F89"/>
<circle cx="41" cy="105" r="9" transform="rotate(90 41 105)" fill="#021F89"/>
<circle cx="41" cy="137" r="9" transform="rotate(90 41 137)" fill="#021F89"/>
<circle cx="9" cy="9" r="9" transform="rotate(90 9 9)" fill="#021F89"/>
<circle cx="9" cy="41" r="9" transform="rotate(90 9 41)" fill="#021F89"/>
<circle cx="9" cy="73" r="9" transform="rotate(90 9 73)" fill="#021F89"/>
<circle cx="9" cy="105" r="9" transform="rotate(90 9 105)" fill="#021F89"/>
<circle cx="9" cy="137" r="9" transform="rotate(90 9 137)" fill="#021F89"/>
</svg>
