<svg width="1440" height="432" viewBox="0 0 1440 432" fill="none" xmlns="http://www.w3.org/2000/svg">
<path fill-rule="evenodd" clip-rule="evenodd" d="M0 173L27 194C53 216 107 259 160 274C213 288 267 274 320 274C373 274 427 288 480 281C533 274 587 245 640 259C693 274 747 331 800 338C853 346 907 302 960 245C1013 187 1067 115 1120 144C1173 173 1227 302 1280 367C1333 432 1387 432 1413 432H1440V0H1413C1387 0 1333 0 1280 0C1227 0 1173 0 1120 0C1067 0 1013 0 960 0C907 0 853 0 800 0C747 0 693 0 640 0C587 0 533 0 480 0C427 0 373 0 320 0C267 0 213 0 160 0C107 0 53 0 27 0H0V173Z" fill="#118858"/>
</svg>
